<svg xmlns="http://www.w3.org/2000/svg" viewBox="0 0 200 200" role="img" aria-label="Illustrated portrait">
  <defs><clipPath id="c3"><circle cx="100" cy="100" r="100"/></clipPath></defs>
  <circle cx="100" cy="100" r="100" fill="#E9F3E6"/>
  <g clip-path="url(#c3)">
    <path d="M18 200q0-52 42-64l80 0q42 12 42 64z" fill="#0E9C99"/>
    <path d="M100 136 90 200h20z" fill="#0A7B79"/>
    <path d="M86 108h28v30H86z" fill="#9A6535"/>
    <ellipse cx="100" cy="80" rx="36" ry="42" fill="#AD733C"/>
    <circle cx="64" cy="84" r="7" fill="#9A6535"/><circle cx="136" cy="84" r="7" fill="#9A6535"/>
    <!-- short black hair -->
    <path d="M62 78q0-40 38-40t38 40q-4-24-38-24T62 78" fill="#1B1410"/>
    <path d="M82 72q7-4 14 0M104 72q7-4 14 0" stroke="#3E2B1A" stroke-width="3" fill="none" stroke-linecap="round"/>
    <circle cx="89" cy="82" r="3.4" fill="#231A11"/><circle cx="111" cy="82" r="3.4" fill="#231A11"/>
    <!-- trimmed beard -->
    <path d="M66 84q2 40 34 40t34-40q-4 30-34 30T66 84" fill="#1B1410" opacity=".85"/>
    <path d="M91 104q9 6 18 0" stroke="#6E4522" stroke-width="3" fill="none" stroke-linecap="round"/>
  </g>
</svg>
